<svg viewBox="1310.3448275862067 501.00000000000006 464.76761619190404 483" xmlns:xlink="http://www.w3.org/1999/xlink" version="1.1" xmlns="http://www.w3.org/2000/svg" style="max-height: 500px" width="464.76761619190404" height="483"><rect fill="#ffffff" height="1500" width="2000"/><g transform="matrix(0.75,0,0,0.75,249.12196512547564,544.7645431980751)"><svg xmlns:xlink="http://www.w3.org/1999/xlink" xmlns="http://www.w3.org/2000/svg" width="2000" height="545" preserveAspectRatio="xMidYMid meet" data-background-color="#ffffff" viewBox="0 0 396 108"><g transform="matrix(1,0,0,1,0.2318012068744224,0.2413642003290022)" id="tight-bounds"><svg width="395.52" height="107.48140927835327" viewBox="0 0 395.52 107.48140927835327"><g><svg width="395.52" height="107.48140927835327" viewBox="0 0 595.971007196984 161.95338729412282"><g><rect data-palette-color="#973dff" id="yte-0" rx="1%" data-fill-palette-color="primary" class="rect-yte-0" fill-opacity="1" stroke="transparent" stroke-width="0" opacity="1" fill="#973dff" y="22.08987952600736" x="411.0254433529033" height="117.7736282421081" width="5.923079360809084"/></g><g transform="matrix(1,0,0,1,0,22.38284875049021)"><svg width="395.52" height="117.1876897931424" viewBox="0 0 395.52 117.1876897931424"><g id="textblocktransform"><svg id="textblock" width="395.52" height="117.1876897931424" viewBox="0 0 395.52 117.1876897931424"><g><svg width="395.52" height="65.6798800085708" viewBox="0 0 395.52 65.6798800085708"><g transform="matrix(1,0,0,1,0,0)"><svg data-palette-color="#973dff" height="65.6798800085708" viewBox="1.85 -38 235.33 38.75" width="395.52"><g id="text-0" data-fill-palette-color="primary" class="wordmark-text-0"><path data-fill-palette-color="primary" fill="#973dff" d="M16 0.6L16 0.6Q13.28 0.6 10.75-0.51 8.22-1.63 6.21-3.89 4.2-6.15 3.03-9.65 1.85-13.15 1.85-17.9L1.85-17.9Q1.85-23.6 3.84-27.51 5.83-31.43 9.16-33.44 12.5-35.45 16.55-35.45L16.55-35.45Q19.3-35.45 21.04-34.93 22.78-34.4 23.81-33.68 24.85-32.95 25.5-32.35L25.5-32.35 22.7-27.1Q21.63-28.28 20.48-28.99 19.33-29.7 16.8-29.7L16.8-29.7Q14.25-29.7 12.46-28.23 10.68-26.75 9.74-24.16 8.8-21.58 8.8-18.25L8.8-18.25Q8.8-11.73 10.99-8.41 13.18-5.1 16.25-5.1L16.25-5.1Q18.63-5.1 20.3-5.78 21.98-6.45 22.8-7.3L22.8-7.3 25.55-2.35Q24.85-1.78 23.69-1.09 22.53-0.4 20.66 0.1 18.8 0.6 16 0.6ZM39.95 0.5L39.95 0.5Q34.45 0.5 31.45-2.95 28.45-6.4 28.45-12.5L28.45-12.5Q28.45-18.65 31.55-22.08 34.65-25.5 40.15-25.5L40.15-25.5Q45.67-25.5 48.56-21.96 51.45-18.43 51.45-12.5L51.45-12.5Q51.45-6.58 48.46-3.04 45.47 0.5 39.95 0.5ZM40.05-4.5L40.05-4.5Q44.8-4.5 44.8-12.5L44.8-12.5Q44.8-20.55 40.05-20.55L40.05-20.55Q37.7-20.55 36.4-18.69 35.1-16.82 35.1-12.5L35.1-12.5Q35.1-8.2 36.4-6.35 37.7-4.5 40.05-4.5ZM65.59 0.7L65.59 0.7Q62.57 0.7 60.34-0.93 58.12-2.55 56.91-5.5 55.7-8.45 55.7-12.4L55.7-12.4Q55.7-18.55 58.21-22.03 60.72-25.5 65.7-25.5L65.7-25.5Q68.25-25.5 70.01-24.24 71.77-22.98 72.3-20.6L72.3-20.6 71.84-24.25 71.84-38 77.75-38 77.75 0 72.3 0 72.3-5.1Q71.62-2.53 69.92-0.91 68.22 0.7 65.59 0.7ZM67.05-4.25L67.05-4.25Q68.84-4.25 70.27-6.14 71.7-8.03 71.7-12.3L71.7-12.3Q71.7-16.2 70.59-18.32 69.5-20.45 67.2-20.45L67.2-20.45Q66.02-20.45 64.86-19.73 63.7-19 62.92-17.24 62.15-15.48 62.15-12.4L62.15-12.4Q62.15-8.28 63.57-6.26 65-4.25 67.05-4.25ZM95.44 0.65L95.44 0.65Q91.24 0.65 88.67-1.11 86.09-2.88 84.92-5.79 83.74-8.7 83.74-12.15L83.74-12.15Q83.74-15.78 85.08-18.81 86.42-21.85 89.01-23.68 91.59-25.5 95.34-25.5L95.34-25.5Q100.94-25.5 103.17-22.26 105.39-19.03 105.39-13.1L105.39-13.1Q105.39-12.58 105.37-11.78 105.34-10.98 105.29-10.4L105.29-10.4 90.29-10.4Q90.44-7.45 91.96-5.78 93.47-4.1 96.49-4.1L96.49-4.1Q98.04-4.1 99.82-4.79 101.59-5.48 102.44-6.45L102.44-6.45 104.44-1.7Q103.44-1.03 101.28-0.19 99.12 0.65 95.44 0.65ZM90.24-14.3L90.24-14.3 99.04-14.3Q99.04-16.93 98.58-18.31 98.12-19.7 97.32-20.23 96.52-20.75 95.49-20.75L95.49-20.75Q92.94-20.75 91.67-18.86 90.39-16.98 90.24-14.3ZM121.24 0L111.79 0 111.79-34.85 121.09-34.85Q127.24-34.85 130.04-32.41 132.84-29.98 132.84-25.55L132.84-25.55Q132.84-23.58 131.89-21.53 130.94-19.48 128.77-18.45L128.77-18.45Q131.74-17.73 133.17-15.55 134.59-13.38 134.59-10.05L134.59-10.05Q134.59-5.45 131.44-2.73 128.29 0 121.24 0L121.24 0ZM121.09-29.9L121.09-29.9 118.09-29.9 118.09-20.25 122.14-20.25Q123.84-20.25 124.83-21.06 125.82-21.88 126.23-23.06 126.64-24.25 126.64-25.35L126.64-25.35Q126.64-27.15 125.85-28.14 125.07-29.13 123.79-29.51 122.52-29.9 121.09-29.9ZM121.64-15.6L121.64-15.6 118.09-15.6 118.09-5.05 121.94-5.05Q123.44-5.05 124.83-5.45 126.22-5.85 127.1-7 127.99-8.15 127.99-10.4L127.99-10.4Q127.99-12.68 127.05-13.79 126.12-14.9 124.65-15.25 123.19-15.6 121.64-15.6ZM144.69 0.7L144.69 0.7Q142.39 0.7 140.88-0.33 139.36-1.35 138.63-3.05 137.89-4.75 137.89-6.8L137.89-6.8Q137.89-7.95 138.48-9.33 139.06-10.7 140.56-11.95 142.06-13.2 144.79-14 147.51-14.8 151.79-14.8L151.79-14.8 151.79-15.95Q151.79-17.8 150.9-19.03 150.01-20.25 147.34-20.25L147.34-20.25Q145.39-20.25 143.53-19.59 141.66-18.93 140.79-17.95L140.79-17.95 138.79-22.75Q140.29-23.78 142.8-24.64 145.31-25.5 148.39-25.5L148.39-25.5Q152.09-25.5 154.14-24.38 156.19-23.25 157.01-21.19 157.84-19.13 157.84-16.35L157.84-16.35 157.84 0 152.49 0 152.04-3.55Q149.44 0.7 144.69 0.7ZM147.34-4.1L147.34-4.1Q148.46-4.1 149.75-5.01 151.04-5.93 151.79-7.35L151.79-7.35 151.79-10.9Q151.54-10.95 151.25-10.95 150.96-10.95 150.59-10.95L150.59-10.95Q149.21-10.95 147.7-10.64 146.19-10.33 145.14-9.55 144.09-8.78 144.09-7.4L144.09-7.4Q144.09-5.6 144.89-4.85 145.69-4.1 147.34-4.1ZM172.74 0.75L172.74 0.75Q168.51 0.75 167.02-1.45 165.53-3.65 165.53-8.1L165.53-8.1 165.53-19.65 162.28-19.65 162.28-24.9 165.78-24.9 166.14-30.15 171.59-32.5 171.59-24.9 177.74-24.9 177.74-19.65 171.59-19.65 171.59-8.25Q171.59-6.08 172.2-5.24 172.81-4.4 173.89-4.4L173.89-4.4Q174.99-4.4 176.21-4.98 177.44-5.55 178.14-6.15L178.14-6.15 179.34-1.1Q178.56-0.55 177.32-0.14 176.09 0.28 174.82 0.51 173.56 0.75 172.74 0.75ZM192.18 0.75L192.18 0.75Q187.96 0.75 186.47-1.45 184.98-3.65 184.98-8.1L184.98-8.1 184.98-19.65 181.73-19.65 181.73-24.9 185.23-24.9 185.58-30.15 191.03-32.5 191.03-24.9 197.18-24.9 197.18-19.65 191.03-19.65 191.03-8.25Q191.03-6.08 191.65-5.24 192.26-4.4 193.33-4.4L193.33-4.4Q194.43-4.4 195.66-4.98 196.88-5.55 197.58-6.15L197.58-6.15 198.78-1.1Q198.01-0.55 196.77-0.14 195.53 0.28 194.27 0.51 193.01 0.75 192.18 0.75ZM209.63 0L203.53 0 203.53-38 209.63-38 209.63 0ZM227.23 0.65L227.23 0.65Q223.03 0.65 220.45-1.11 217.88-2.88 216.7-5.79 215.53-8.7 215.53-12.15L215.53-12.15Q215.53-15.78 216.87-18.81 218.2-21.85 220.79-23.68 223.38-25.5 227.13-25.5L227.13-25.5Q232.73-25.5 234.95-22.26 237.18-19.03 237.18-13.1L237.18-13.1Q237.18-12.58 237.15-11.78 237.13-10.98 237.08-10.4L237.08-10.4 222.08-10.4Q222.23-7.45 223.74-5.78 225.25-4.1 228.28-4.1L228.28-4.1Q229.83-4.1 231.6-4.79 233.38-5.48 234.23-6.45L234.23-6.45 236.23-1.7Q235.23-1.03 233.06-0.19 230.9 0.65 227.23 0.65ZM222.03-14.3L222.03-14.3 230.83-14.3Q230.83-16.93 230.37-18.31 229.9-19.7 229.1-20.23 228.3-20.75 227.28-20.75L227.28-20.75Q224.73-20.75 223.45-18.86 222.18-16.98 222.03-14.3Z"/></g></svg></g></svg></g><g transform="matrix(1,0,0,1,163.310208,81.18532336147416)"><svg width="232.209792" height="36.002366431668236" viewBox="0 0 232.209792 36.002366431668236"><g transform="matrix(1,0,0,1,0,0)"><svg data-palette-color="#eb20f9" height="36.002366431668236" viewBox="2.9 -32.3 212.18 32.9" width="232.209792"><path id="text-1" data-fill-palette-color="secondary" class="slogan-text-1" fill="#eb20f9" transform="matrix(1,0,0,1,0,0)" opacity="1" d="M8.6 0Q7.05 0 5.25 0.25 3.45 0.5 2.9 0.6L2.9 0.6 3.2-1.7Q5.5-2.15 6.3-3.03 7.1-3.9 7.1-6L7.1-6 7.15-27Q7.15-28.6 6.78-29.15 6.4-29.7 5.3-29.7L5.3-29.7Q4.8-29.7 4.3-29.65 3.8-29.6 3.6-29.6L3.6-29.6 3.5-29.8 3.85-32Q4.45-31.95 6.1-31.9 7.75-31.85 9.4-31.85L9.4-31.85Q11.1-31.85 12.88-31.93 14.65-32 15.3-32.05L15.3-32.05Q20.05-32.05 22.6-30.08 25.15-28.1 25.15-24.45L25.15-24.45Q25.15-21.95 23.63-19.95 22.1-17.95 19.35-16.75L19.35-16.75Q23-15.95 25.05-13.95 27.1-11.95 27.1-9.15L27.1-9.15Q27.1-6.6 25.48-4.38 23.85-2.15 21.15-0.83 18.45 0.5 15.35 0.5L15.35 0.5Q14 0.5 12.25 0.25L12.25 0.25Q9.4 0 8.6 0L8.6 0ZM10.95-17.55Q11.7-17.5 13.48-17.35 15.25-17.2 16.4-17.15L16.4-17.15Q16.4-17 17.7-17.68 19-18.35 20.05-19.78 21.1-21.2 21.1-23.6L21.1-23.6Q21.1-26.8 18.95-28.35 16.8-29.9 12.3-29.9L12.3-29.9Q11.8-29.9 11.63-29.68 11.45-29.45 11.4-28.75L11.4-28.75Q11.1-23.95 10.95-17.55L10.95-17.55ZM10.85-14.9L10.65-5.55Q10.65-3.65 11.95-2.85 13.25-2.05 16.35-2.05L16.35-2.05Q19.35-2.05 21.08-3.73 22.8-5.4 22.8-8.25L22.8-8.25Q22.8-10.95 21.1-12.68 19.4-14.4 16.05-15L16.05-15 10.85-14.9ZM44.05 0.35L43.9 0.1 44.05-1.7Q46.15-1.85 46.87-2.15 47.6-2.45 47.6-3.15L47.6-3.15Q47.6-3.95 47.25-4.85L47.25-4.85 46.05-8.7Q45.05-8.75 41.9-8.75L41.9-8.75Q40.45-8.75 37.6-8.45L37.6-8.45 36.2-4.75Q35.85-3.6 35.85-3.35L35.85-3.35Q35.85-2.55 36.4-2.2 36.95-1.85 38.2-1.85L38.2-1.85 40.35-1.85 40.5-1.65 40.2 0.25Q39.7 0.2 37.92 0.1 36.15 0 34.45 0L34.45 0Q32.85 0 31.57 0.05 30.3 0.1 29.85 0.1L29.85 0.1 30.15-1.95Q31.25-2.1 31.9-2.73 32.55-3.35 33.2-4.85L33.2-4.85 41.05-24.7 44.6-25.35 44.95-25.3Q44.95-25.1 47.22-17.4 49.5-9.7 51.3-4.65L51.3-4.65Q51.8-3.2 52.57-2.63 53.35-2.05 55.05-1.9L55.05-1.9 55.15-1.7 54.9 0.1Q54.4 0.1 53.05 0.05 51.7 0 50.35 0L50.35 0Q48.3 0 46.45 0.15 44.6 0.3 44.05 0.35L44.05 0.35ZM38.4-10.8L41.8-10.8Q43.55-10.8 45.45-11L45.45-11 42.4-20.7 42.05-20.7 38.4-10.8ZM59.59 0.2L59.95-1.8Q61.95-1.95 62.77-2.3 63.59-2.65 63.82-3.48 64.05-4.3 64.05-6.35L64.05-6.35 64.05-22.9Q60.89-22.8 59.8-22.55 58.7-22.3 58.17-21.38 57.64-20.45 57.3-17.9L57.3-17.9 54.95-17.75Q55.05-18.4 55.27-20.63 55.49-22.85 55.55-25L55.55-25 55.95-25.35 59.49-24.95 72.25-24.95 75.89-25.35 76.3-25Q76.34-22.8 76.55-20.65 76.75-18.5 76.84-17.9L76.84-17.9 74.55-17.75Q74.14-20.35 73.62-21.33 73.09-22.3 72.07-22.55 71.05-22.8 68.14-22.9L68.14-22.9Q67.89-20.5 67.69-14.93 67.5-9.35 67.5-4.65L67.5-4.65Q67.5-3.2 68.05-2.6 68.59-2 69.84-2L69.84-2Q70.75-2 71.32-2.05 71.89-2.1 72.05-2.1L72.05-2.1 72.19-1.95 71.84 0.15Q71.14 0.15 69.25 0.08 67.34 0 65.55 0L65.55 0Q63.74 0 61.99 0.08 60.24 0.15 59.59 0.2L59.59 0.2ZM83.79 0.2L84.14-1.8Q86.14-1.95 86.97-2.3 87.79-2.65 88.02-3.48 88.24-4.3 88.24-6.35L88.24-6.35 88.24-22.9Q85.09-22.8 83.99-22.55 82.89-22.3 82.37-21.38 81.84-20.45 81.49-17.9L81.49-17.9 79.14-17.75Q79.24-18.4 79.47-20.63 79.69-22.85 79.74-25L79.74-25 80.14-25.35 83.69-24.95 96.44-24.95 100.09-25.35 100.49-25Q100.54-22.8 100.74-20.65 100.94-18.5 101.04-17.9L101.04-17.9 98.74-17.75Q98.34-20.35 97.82-21.33 97.29-22.3 96.27-22.55 95.24-22.8 92.34-22.9L92.34-22.9Q92.09-20.5 91.89-14.93 91.69-9.35 91.69-4.65L91.69-4.65Q91.69-3.2 92.24-2.6 92.79-2 94.04-2L94.04-2Q94.94-2 95.52-2.05 96.09-2.1 96.24-2.1L96.24-2.1 96.39-1.95 96.04 0.15Q95.34 0.15 93.44 0.08 91.54 0 89.74 0L89.74 0Q87.94 0 86.19 0.08 84.44 0.15 83.79 0.2L83.79 0.2ZM105.04 0.4L105.34-1.7Q106.94-1.95 107.52-2.63 108.09-3.3 108.09-5L108.09-5 108.14-20.85Q108.14-22.1 107.84-22.53 107.54-22.95 106.64-22.95L106.64-22.95 105.29-22.9 105.14-23.1 105.44-25Q105.69-25 106.94-24.95 108.19-24.9 110.29-24.9L110.29-24.9Q111.39-24.9 113.02-25.05 114.64-25.2 115.14-25.25L115.14-25.25 114.94-23.15Q113.59-23 113.04-22.68 112.49-22.35 112.39-21.85 112.29-21.35 112.14-19.8L112.14-19.8Q111.64-13.1 111.64-4.95L111.64-4.95Q111.64-3.7 111.87-3.13 112.09-2.55 112.77-2.35 113.44-2.15 114.89-2.15L114.89-2.15Q117.29-2.15 118.42-2.55 119.54-2.95 120.12-4.13 120.69-5.3 121.14-7.85L121.14-7.85 123.34-8.1 123.49-7.8Q123.39-7.15 123.02-4.83 122.64-2.5 122.34 0.05L122.34 0.05 122.09 0.35Q120.94 0.3 117.22 0.15 113.49 0 110.94 0L110.94 0Q108.94 0 107.22 0.18 105.49 0.35 105.04 0.4L105.04 0.4ZM125.79 0.4L126.04-1.7Q127.89-1.9 128.54-2.6 129.19-3.3 129.19-5L129.19-5 129.24-20.85Q129.24-22.1 128.94-22.53 128.64-22.95 127.74-22.95L127.74-22.95 126.39-22.9 126.29-23.1 126.59-25Q127.19-25 128.94-24.95 130.69-24.9 132.74-24.9L132.74-24.9Q141.09-24.9 145.09-25.35L145.09-25.35 145.24-25.1Q145.14-24.55 144.79-22.6 144.44-20.65 144.29-18.4L144.29-18.4 141.89-18.2Q141.89-18.4 141.94-18.88 141.99-19.35 141.99-19.85L141.99-19.85Q141.99-21.15 141.61-21.68 141.24-22.2 140.06-22.38 138.89-22.55 135.99-22.55L135.99-22.55Q134.64-22.55 134.14-22.48 133.64-22.4 133.49-22.13 133.34-21.85 133.29-21.1L133.29-21.1 132.99-14 137.09-13.95Q137.99-13.95 139.74-14.13 141.49-14.3 142.04-14.35L142.04-14.35 142.24-14.1 141.64-11.5Q141.09-11.5 139.46-11.55 137.84-11.6 136.04-11.6L136.04-11.6Q134.64-11.6 132.89-11.35L132.89-11.35Q132.74-7.55 132.74-4.5L132.74-4.5Q132.74-3.35 132.91-2.9 133.09-2.45 133.71-2.3 134.34-2.15 135.79-2.15L135.79-2.15Q139.04-2.15 140.44-2.45 141.84-2.75 142.41-3.68 142.99-4.6 143.34-6.85L143.34-6.85 145.54-7.05 145.74-6.8Q145.59-6.25 145.21-4.23 144.84-2.2 144.64 0L144.64 0 144.34 0.25Q142.99 0.2 138.74 0.1 134.49 0 131.84 0L131.84 0Q129.79 0 128.04 0.18 126.29 0.35 125.79 0.4L125.79 0.4ZM174.73 0.6Q169.48 0.6 166.63-2.27 163.78-5.15 163.78-10.45L163.78-10.45 163.78-27Q163.78-28.6 163.41-29.15 163.03-29.7 161.93-29.7L161.93-29.7Q161.43-29.7 160.93-29.65 160.43-29.6 160.23-29.6L160.23-29.6 160.13-29.8 160.48-32Q161.08-31.95 162.76-31.9 164.43-31.85 166.13-31.85L166.13-31.85Q167.48-31.85 169.18-32.02 170.88-32.2 171.38-32.3L171.38-32.3 171.18-30.05Q169.33-29.8 168.71-29.23 168.08-28.65 167.98-27.2L167.98-27.2 167.58-12.5Q167.58-7.55 169.73-4.9 171.88-2.25 175.93-2.25L175.93-2.25Q180.03-2.25 182.18-4.42 184.33-6.6 184.33-10.7L184.33-10.7Q184.28-14.7 184.18-19.83 184.08-24.95 184.03-27L184.03-27Q183.93-28.75 183.61-29.23 183.28-29.7 182.18-29.7L182.18-29.7Q181.58-29.7 180.93-29.65 180.28-29.6 180.03-29.6L180.03-29.6 179.93-29.8 180.28-32Q180.88-31.95 182.56-31.9 184.23-31.85 185.93-31.85L185.93-31.85Q187.28-31.85 188.81-32.02 190.33-32.2 190.78-32.3L190.78-32.3 190.58-30.05Q189.08-29.85 188.36-29.58 187.63-29.3 187.38-28.78 187.13-28.25 187.13-27.2L187.13-27.2 187.13-10.4Q187.13-5.15 183.88-2.27 180.63 0.6 174.73 0.6L174.73 0.6ZM195.33 0.3L195.63-1.75Q197.38-2.05 197.96-2.68 198.53-3.3 198.53-4.95L198.53-4.95 198.58-20.85Q198.58-22.1 198.28-22.53 197.98-22.95 197.13-22.95L197.13-22.95 195.73-22.9 195.58-23.1 195.88-25Q196.13-25 197.36-24.95 198.58-24.9 200.58-24.9L200.58-24.9Q201.93-24.9 203.63-24.98 205.33-25.05 206.03-25.05L206.03-25.05Q210.53-25.05 212.81-23.15 215.08-21.25 215.08-17.95L215.08-17.95Q215.08-15.75 213.73-13.75 212.38-11.75 210.21-10.53 208.03-9.3 205.58-9.3L205.58-9.3 202.13-9.3 202.08-5.8Q202.08-4.05 202.21-3.28 202.33-2.5 202.68-2.25 203.03-2 203.88-2L203.88-2Q204.53-2 205.18-2.05 205.83-2.1 206.03-2.1L206.03-2.1 206.13-1.9 205.73 0.1Q205.28 0.1 204.08 0.05 202.88 0 201.63 0L201.63 0Q199.98 0 197.68 0.1 195.38 0.2 195.33 0.3L195.33 0.3ZM206.38-11.45Q211.03-12.2 211.03-17.25L211.03-17.25Q211.03-20.05 209.28-21.38 207.53-22.7 203.73-22.7L203.73-22.7Q203.03-22.7 202.88-22.63 202.73-22.55 202.68-22.1L202.68-22.1Q202.28-15.75 202.23-12L202.23-12 206.38-11.45Z"/></svg></g></svg></g></svg></g></svg></g><g transform="matrix(1,0,0,1,432.45396606661575,0)"><svg width="163.51704113036826" height="161.95338729412282" viewBox="0 0 163.51704113036826 161.95338729412282"><g><svg id="icon-0" data-fill-palette-color="accent" class="icon-icon-0" width="163.51704113036826" height="161.95338729412282" y="0" x="0" viewBox="12.725747114372473 13.081469725094195 74.54841012883074 73.83553086757377" data-name="Layer 1" xmlns="http://www.w3.org/2000/svg"><path data-fill-palette-color="accent" fill="#301c3b" d="M65.204 49.637A0.37 0.37 0 0 0 65.496 49.777 0.4 0.4 0 0 0 65.65 49.742C85.621 40.778 87.26 24.038 87.273 23.87A0.38 0.38 0 0 0 87.156 23.565 0.37 0.37 0 0 0 86.845 23.468C86.782 23.478 80.312 24.348 70.795 18.958L71.053 18.514A0.375 0.375 0 0 0 70.914 18.002L70.634 17.84 71.348 16.598A0.376 0.376 0 0 0 71.21 16.086L66.092 13.131A0.377 0.377 0 0 0 65.58 13.268L64.86 14.508 64.404 14.243A0.38 0.38 0 0 0 63.892 14.382L57.76 25.002A0.376 0.376 0 0 0 57.897 25.517L58.326 25.763 50 40.105 41.674 25.763 42.103 25.516A0.376 0.376 0 0 0 42.24 25.003L36.108 14.382A0.38 0.38 0 0 0 35.596 14.244L35.14 14.507 34.42 13.267A0.377 0.377 0 0 0 33.908 13.132L28.79 16.086A0.376 0.376 0 0 0 28.652 16.598L29.366 17.84 29.086 18.002A0.375 0.375 0 0 0 28.948 18.515L29.204 18.957C19.71 24.335 13.223 23.476 13.154 23.467A0.376 0.376 0 0 0 12.727 23.87 26.8 26.8 0 0 0 15.972 33.432C18.6 38.289 23.922 45.062 34.35 49.743A0.4 0.4 0 0 0 34.504 49.776 0.375 0.375 0 0 0 34.804 49.178C34.735 49.082 27.697 39.508 28.865 33.876A4.29 4.29 0 0 1 31.017 30.88L34.642 28.787 34.903 29.24A0.375 0.375 0 0 0 35.413 29.378L35.847 29.128 46.053 46.904 38.038 60.71A1.5 1.5 0 0 0 37.427 60.749 1.54 1.54 0 0 0 36.595 63.166 1.09 1.09 0 0 0 35.997 64.225L35.761 64.632A1.2 1.2 0 0 0 35.289 65.07 1.2 1.2 0 0 0 35.145 65.692L34.903 66.11A1.09 1.09 0 0 0 34.293 67.16L34.044 67.59A1.09 1.09 0 0 0 33.441 68.627L33.186 69.067A1.09 1.09 0 0 0 32.588 70.097L32.328 70.545A1.09 1.09 0 0 0 31.736 71.565L31.47 72.024A1.09 1.09 0 0 0 30.884 73.032L30.612 73.502A1.09 1.09 0 0 0 30.032 74.5L29.752 74.981A1.1 1.1 0 0 0 29.18 75.967L28.895 76.458A1.1 1.1 0 0 0 28.328 77.435L28.037 77.937A1.1 1.1 0 0 0 27.476 78.903L27.179 79.415A1.1 1.1 0 0 0 26.624 80.37L26.617 80.382A0.4 0.4 0 0 0 26.487 80.427 1.534 1.534 0 0 0 25.439 83.128 3.502 3.502 0 0 0 30.93 86.288 1.52 1.52 0 0 0 32.764 85.61 1.39 1.39 0 0 0 32.736 84.07 0.4 0.4 0 0 0 32.707 83.896L32.713 83.886A1.1 1.1 0 0 0 33.263 82.93L33.56 82.414A1.1 1.1 0 0 0 34.113 81.448L34.403 80.943A1.1 1.1 0 0 0 34.966 79.963L35.249 79.47A1.09 1.09 0 0 0 35.817 78.481L36.093 78A1.09 1.09 0 0 0 36.668 76.999L36.922 76.555A1.2 1.2 0 0 0 37.372 76.107 1.2 1.2 0 0 0 37.52 75.517L37.784 75.055A1.09 1.09 0 0 0 38.37 74.035L38.63 73.582A1.09 1.09 0 0 0 39.22 72.553L39.475 72.11A1.09 1.09 0 0 0 40.072 71.07L40.319 70.639A1.09 1.09 0 0 0 40.923 69.587L41.164 69.167A1.09 1.09 0 0 0 41.774 68.106L41.994 67.724A1.2 1.2 0 0 0 42.481 67.257 1.2 1.2 0 0 0 42.626 66.637 1.53 1.53 0 0 0 44.031 64.173L50.001 53.778 55.968 64.175A1.496 1.496 0 0 0 57.374 66.636 1.2 1.2 0 0 0 57.518 67.256 1.2 1.2 0 0 0 58.007 67.724L58.226 68.104A1.09 1.09 0 0 0 58.836 69.167L59.076 69.587A1.09 1.09 0 0 0 59.682 70.64L59.928 71.069A1.09 1.09 0 0 0 60.526 72.112L60.78 72.551A1.09 1.09 0 0 0 61.371 73.584L61.63 74.034A1.09 1.09 0 0 0 62.215 75.055L62.481 75.516A1.2 1.2 0 0 0 62.627 76.107 1.2 1.2 0 0 0 63.077 76.555L63.333 77A1.1 1.1 0 0 0 63.907 77.999L64.184 78.48A1.1 1.1 0 0 0 64.75 79.471L65.035 79.963A1.1 1.1 0 0 0 65.597 80.943L65.887 81.447A1.1 1.1 0 0 0 66.44 82.414L66.737 82.928A1.1 1.1 0 0 0 67.287 83.886L67.293 83.896A0.4 0.4 0 0 0 67.263 84.07 1.51 1.51 0 0 0 69.07 86.29 3.54 3.54 0 0 0 71.072 86.917 3.5 3.5 0 0 0 74.562 83.127 1.534 1.534 0 0 0 73.512 80.428 0.4 0.4 0 0 0 73.382 80.382L73.377 80.37A1.1 1.1 0 0 0 72.822 79.415L72.524 78.902A1.1 1.1 0 0 0 71.964 77.937L71.672 77.435A1.1 1.1 0 0 0 71.105 76.458L70.82 75.967A1.1 1.1 0 0 0 70.247 74.981L69.968 74.5A1.1 1.1 0 0 0 69.388 73.502L69.117 73.032A1.09 1.09 0 0 0 68.53 72.024L68.263 71.564A1.09 1.09 0 0 0 67.672 70.544L67.412 70.097A1.09 1.09 0 0 0 66.813 69.067L66.56 68.627A1.09 1.09 0 0 0 65.956 67.59L65.707 67.16A1.09 1.09 0 0 0 65.097 66.11L64.856 65.693A1.2 1.2 0 0 0 64.712 65.07 1.2 1.2 0 0 0 64.24 64.633L64.003 64.225A1.09 1.09 0 0 0 63.405 63.165 1.54 1.54 0 0 0 62.573 60.75 1.5 1.5 0 0 0 61.963 60.709L53.946 46.905 64.153 29.128 64.587 29.378A0.375 0.375 0 0 0 65.097 29.239L65.358 28.787 68.983 30.88A4.29 4.29 0 0 1 71.136 33.876C72.304 39.509 65.266 49.082 65.196 49.178A0.375 0.375 0 0 0 65.203 49.637M69.358 30.229L65.41 27.95A0.4 0.4 0 0 0 65.222 27.9 0.37 0.37 0 0 0 64.897 28.088L64.635 28.54 62.683 27.413 63.205 26.51A1.5 1.5 0 0 0 63.613 26.57 1.5 1.5 0 0 0 64.01 26.516 1.517 1.517 0 0 0 64.676 23.963L64.893 23.587A1.519 1.519 0 0 0 66.773 21.73 1.5 1.5 0 0 0 66.352 21.06L66.58 20.664A1.5 1.5 0 0 0 66.988 20.724 1.5 1.5 0 0 0 67.385 20.67 1.517 1.517 0 0 0 68.05 18.117L68.44 17.441 70.215 18.465 69.958 18.908A0.375 0.375 0 0 0 70.096 19.421C76.633 23.196 81.746 24.09 84.559 24.25A35.86 35.86 0 0 1 68.387 45.626C70.36 42.218 72.616 37.321 71.87 33.725A5.06 5.06 0 0 0 69.358 30.229M72.45 85.797A2.77 2.77 0 0 1 69.847 85.884L73.827 83.585A2.77 2.77 0 0 1 72.45 85.797M73.956 82.645L68.966 85.525V85.526A0.78 0.78 0 0 1 68.367 85.605 0.792 0.792 0 0 1 68.175 84.155L73.165 81.274A0.8 0.8 0 0 1 73.558 81.167 0.791 0.791 0 0 1 73.956 82.645M72.406 80.845L68.18 83.285A0.475 0.475 0 0 1 67.535 83.108 0.477 0.477 0 0 1 67.71 82.457L71.928 80.02A0.46 0.46 0 0 1 72.289 79.974 0.476 0.476 0 0 1 72.406 80.845M71.774 79.082A0.47 0.47 0 0 1 71.553 79.372L67.334 81.806A0.477 0.477 0 0 1 66.857 80.982L71.077 78.546A0.476 0.476 0 0 1 71.773 79.082M70.923 77.607A0.47 0.47 0 0 1 70.7 77.897L66.482 80.331V80.333A0.48 0.48 0 0 1 65.832 80.159 0.48 0.48 0 0 1 66.005 79.506L70.225 77.07A0.46 0.46 0 0 1 70.585 77.023 0.475 0.475 0 0 1 70.924 77.607M70.07 76.132A0.47 0.47 0 0 1 69.85 76.42L65.63 78.856V78.857A0.477 0.477 0 1 1 65.155 78.031L69.373 75.596A0.476 0.476 0 0 1 70.071 76.132M68.998 74.946L64.779 77.382A0.477 0.477 0 1 1 64.303 76.558L68.52 74.12A0.47 0.47 0 0 1 68.759 74.057 0.477 0.477 0 0 1 68.999 74.947M68.368 73.182A0.47 0.47 0 0 1 68.145 73.47L63.928 75.906A0.477 0.477 0 0 1 63.45 75.081L67.67 72.646A0.477 0.477 0 0 1 68.32 72.82 0.47 0.47 0 0 1 68.368 73.182M67.294 71.996L63.075 74.432A0.48 0.48 0 0 1 62.424 74.259 0.48 0.48 0 0 1 62.599 73.606L66.817 71.17A0.48 0.48 0 0 1 67.47 71.346 0.477 0.477 0 0 1 67.294 71.996M66.442 70.521L62.224 72.956V72.957A0.477 0.477 0 0 1 61.747 72.131L65.966 69.695A0.476 0.476 0 1 1 66.442 70.521M65.812 68.757A0.47 0.47 0 0 1 65.591 69.046L61.372 71.48V71.482A0.47 0.47 0 0 1 61.011 71.53 0.477 0.477 0 0 1 60.895 70.656L65.115 68.221A0.476 0.476 0 0 1 65.811 68.757M64.961 67.282A0.47 0.47 0 0 1 64.739 67.57L60.52 70.006A0.477 0.477 0 0 1 60.044 69.182L64.263 66.745A0.476 0.476 0 0 1 64.96 67.282M64.109 65.807A0.47 0.47 0 0 1 63.888 66.096L59.668 68.53V68.532A0.47 0.47 0 0 1 59.309 68.58 0.476 0.476 0 0 1 59.192 67.707L63.412 65.271A0.476 0.476 0 0 1 64.108 65.807M58.12 66.52A0.47 0.47 0 0 1 58.341 66.23L62.56 63.795A0.47 0.47 0 0 1 62.92 63.748 0.476 0.476 0 0 1 63.037 64.62L58.817 67.057A0.48 0.48 0 0 1 58.166 66.882 0.47 0.47 0 0 1 58.119 66.52M62.94 62.442A0.78 0.78 0 0 1 62.568 62.922L60.075 64.364 57.965 65.581 57.582 65.804A0.791 0.791 0 0 1 56.79 64.434L61.78 61.552A0.793 0.793 0 0 1 62.858 61.842 0.78 0.78 0 0 1 62.94 62.442M56.56 63.7L36.496 28.753 38.748 27.453 38.75 27.452 41.024 26.138 61.256 60.988ZM43.5 65.515A0.79 0.79 0 0 1 42.419 65.804L42.034 65.58 41.03 65.001 37.431 62.923A0.791 0.791 0 1 1 38.22 61.553L43.212 64.433A0.794 0.794 0 0 1 43.501 65.515M31.634 85.605A0.78 0.78 0 0 1 31.034 85.525L26.043 82.645A0.792 0.792 0 0 1 26.44 81.167 0.8 0.8 0 0 1 26.836 81.274L31.826 84.154A0.8 0.8 0 0 1 32.192 84.633 0.79 0.79 0 0 1 31.633 85.605M27.55 85.796A2.77 2.77 0 0 1 26.173 83.587L30.153 85.883A2.77 2.77 0 0 1 27.55 85.797M41.03 67.995A0.475 0.475 0 0 1 40.691 68.58 0.46 0.46 0 0 1 40.332 68.531L36.111 66.097A0.47 0.47 0 0 1 35.891 65.807 0.47 0.47 0 0 1 35.938 65.445 0.47 0.47 0 0 1 36.352 65.207 0.47 0.47 0 0 1 36.589 65.271L40.808 67.707A0.47 0.47 0 0 1 41.029 67.995M40.177 69.471A0.474 0.474 0 0 1 39.84 70.054 0.46 0.46 0 0 1 39.479 70.006L35.262 67.57A0.476 0.476 0 0 1 35.375 66.698 0.5 0.5 0 0 1 35.5 66.682 0.47 0.47 0 0 1 35.737 66.746L39.957 69.181A0.47 0.47 0 0 1 40.176 69.47M39.326 70.945A0.475 0.475 0 0 1 38.99 71.53 0.45 0.45 0 0 1 38.628 71.481L34.409 69.047A0.478 0.478 0 0 1 34.523 68.173 0.5 0.5 0 0 1 34.648 68.156 0.47 0.47 0 0 1 34.886 68.221L39.104 70.656A0.47 0.47 0 0 1 39.326 70.946M38.475 72.421A0.474 0.474 0 0 1 38.138 73.004 0.46 0.46 0 0 1 37.776 72.956L33.558 70.521A0.476 0.476 0 0 1 33.796 69.631 0.47 0.47 0 0 1 34.034 69.697L38.253 72.131A0.47 0.47 0 0 1 38.475 72.42M37.576 74.258A0.47 0.47 0 0 1 37.286 74.479 0.46 0.46 0 0 1 36.925 74.433L32.706 71.996A0.476 0.476 0 0 1 32.944 71.106 0.47 0.47 0 0 1 33.183 71.171L37.4 73.605A0.48 0.48 0 0 1 37.576 74.258M36.771 75.37A0.476 0.476 0 0 1 36.072 75.906L31.854 73.471A0.47 0.47 0 0 1 31.632 73.18 0.47 0.47 0 0 1 31.679 72.822 0.48 0.48 0 0 1 32.093 72.581 0.47 0.47 0 0 1 32.33 72.646L36.55 75.081A0.47 0.47 0 0 1 36.77 75.371M35.873 77.208A0.477 0.477 0 0 1 35.221 77.382L31.002 74.947A0.477 0.477 0 0 1 31.242 74.057 0.47 0.47 0 0 1 31.48 74.12L35.697 76.557A0.48 0.48 0 0 1 35.873 77.208M35.021 78.683A0.477 0.477 0 0 1 34.37 78.856L30.15 76.422A0.476 0.476 0 0 1 30.266 75.549 0.5 0.5 0 0 1 30.39 75.532 0.47 0.47 0 0 1 30.627 75.597L34.846 78.03A0.48 0.48 0 0 1 35.02 78.683M34.17 80.158A0.47 0.47 0 0 1 33.88 80.38 0.46 0.46 0 0 1 33.518 80.332L29.298 77.897A0.477 0.477 0 0 1 29.415 77.023 0.5 0.5 0 0 1 29.538 77.007 0.47 0.47 0 0 1 29.775 77.07L33.995 79.506A0.48 0.48 0 0 1 34.17 80.158M33.364 81.271A0.477 0.477 0 0 1 33.028 81.854 0.46 0.46 0 0 1 32.666 81.807L28.447 79.372A0.476 0.476 0 0 1 28.562 78.5 0.5 0.5 0 0 1 28.686 78.482 0.47 0.47 0 0 1 28.924 78.547L33.142 80.98A0.47 0.47 0 0 1 33.364 81.271M32.464 83.108A0.47 0.47 0 0 1 32.178 83.33 0.46 0.46 0 0 1 31.819 83.284L27.59 80.844A0.48 0.48 0 0 1 27.42 80.194 0.47 0.47 0 0 1 27.71 79.974 0.5 0.5 0 0 1 27.835 79.957 0.47 0.47 0 0 1 28.072 80.021L32.291 82.457A0.477 0.477 0 0 1 32.465 83.108M41.184 67.057L36.963 64.62A0.476 0.476 0 0 1 37.08 63.748 0.5 0.5 0 0 1 37.203 63.731 0.47 0.47 0 0 1 37.44 63.796L41.66 66.23A0.48 0.48 0 0 1 41.833 66.882 0.48 0.48 0 0 1 41.183 67.057M43.44 63.699L38.743 60.988 46.484 47.655 49.568 53.025ZM34.59 27.95L30.643 30.23A5.06 5.06 0 0 0 28.13 33.725C27.384 37.32 29.64 42.218 31.613 45.626A35.9 35.9 0 0 1 15.442 24.251C18.255 24.091 23.366 23.196 29.904 19.421A0.375 0.375 0 0 0 30.042 18.908L29.785 18.465 31.56 17.44 31.949 18.117A1.517 1.517 0 0 0 32.615 20.671 1.5 1.5 0 0 0 33.012 20.724 1.5 1.5 0 0 0 33.42 20.664L33.648 21.06A1.5 1.5 0 0 0 33.228 21.73 1.5 1.5 0 0 0 33.378 22.885 1.51 1.51 0 0 0 35.109 23.587L35.323 23.963A1.517 1.517 0 0 0 35.99 26.517 1.5 1.5 0 0 0 36.387 26.569 1.5 1.5 0 0 0 36.795 26.51L37.316 27.413 35.366 28.54 35.102 28.088A0.38 0.38 0 0 0 34.59 27.95M13.534 24.257C13.805 24.275 14.197 24.287 14.677 24.28A36.56 36.56 0 0 0 32.395 46.927C32.765 47.522 33.108 48.05 33.392 48.47 16.79 40.422 13.937 26.889 13.533 24.257M33.96 13.967L34.49 14.883 32.241 16.181 30.015 17.465 29.49 16.55ZM37.967 27.038L37.433 26.113A1.5 1.5 0 0 0 37.853 25.44 1.515 1.515 0 0 0 35.975 23.588L35.756 23.208A1.514 1.514 0 0 0 34.287 20.667L34.057 20.267A1.5 1.5 0 0 0 34.478 19.596 1.5 1.5 0 0 0 34.328 18.44 1.525 1.525 0 0 0 32.6 17.743L32.209 17.066 35.646 15.082 41.402 25.052ZM35.717 25.433A0.77 0.77 0 0 1 35.998 24.38 0.76 0.76 0 0 1 36.382 24.276 0.77 0.77 0 1 1 35.717 25.433M34.029 22.51A0.77 0.77 0 0 1 34.311 21.457 0.76 0.76 0 0 1 34.694 21.354 0.77 0.77 0 1 1 34.03 22.51M32.342 19.587A0.77 0.77 0 0 1 32.623 18.534 0.76 0.76 0 0 1 33.007 18.431 0.77 0.77 0 1 1 32.342 19.587M50.434 40.852L58.976 26.138 61.25 27.452 61.252 27.453 63.504 28.753 53.512 46.155ZM58.598 25.052L64.354 15.083 67.791 17.066 67.401 17.742A1.516 1.516 0 0 0 65.522 19.596 1.5 1.5 0 0 0 65.942 20.268L65.712 20.665A1.514 1.514 0 0 0 64.245 23.21L64.025 23.588A1.516 1.516 0 0 0 62.147 25.44 1.5 1.5 0 0 0 62.567 26.113L62.033 27.037ZM70.51 16.55L69.984 17.465 67.76 16.181 65.51 14.882 66.041 13.968ZM67.658 19.587A0.77 0.77 0 1 1 67.377 18.534 0.77 0.77 0 0 1 67.658 19.587M65.69 21.457A0.77 0.77 0 1 1 65.306 21.353 0.76 0.76 0 0 1 65.689 21.457M64.283 25.433A0.77 0.77 0 1 1 63.618 24.276 0.76 0.76 0 0 1 64.002 24.38 0.77 0.77 0 0 1 64.283 25.433M67.605 46.927A36.56 36.56 0 0 0 85.323 24.28C85.803 24.287 86.195 24.275 86.467 24.257 86.067 26.889 83.229 40.415 66.608 48.469 66.892 48.049 67.235 47.522 67.605 46.927"/></svg></g></svg></g></svg></g><defs/></svg><rect visibility="hidden" stroke="none" fill="none" height="107.48140927835327" width="395.52"/></g></svg></g></svg>